<svg width="33" height="33" viewBox="0 0 33 33" fill="none" xmlns="http://www.w3.org/2000/svg">
<path d="M16.0062 17.8722L9.47511 24.4078C9.23075 24.6524 8.91968 24.7747 8.54191 24.7748C8.16413 24.775 7.85297 24.6528 7.60845 24.4085C7.36392 24.1641 7.24159 23.8531 7.24146 23.4753C7.24133 23.0975 7.36344 22.7863 7.6078 22.5418L14.1389 16.0062L7.60328 9.47515C7.35875 9.23079 7.23642 8.91972 7.23629 8.54194C7.23616 8.16417 7.35827 7.85301 7.60263 7.60848C7.84699 7.36395 8.15806 7.24162 8.53584 7.24149C8.91362 7.24136 9.22477 7.36348 9.4693 7.60784L16.0049 14.1389L22.536 7.60332C22.7803 7.35879 23.0914 7.23646 23.4692 7.23633C23.847 7.2362 24.1581 7.35831 24.4026 7.60267C24.6472 7.84703 24.7695 8.1581 24.7696 8.53588C24.7698 8.91365 24.6476 9.22481 24.4033 9.46934L17.8722 16.0049L24.4078 22.536C24.6523 22.7804 24.7747 23.0914 24.7748 23.4692C24.7749 23.847 24.6528 24.1581 24.4084 24.4027C24.1641 24.6472 23.853 24.7695 23.4752 24.7697C23.0975 24.7698 22.7863 24.6477 22.5418 24.4033L16.0062 17.8722Z" fill="white"/>
</svg>
